<?xml version="1.0" encoding="UTF-8"?>
<svg xmlns="http://www.w3.org/2000/svg" xmlns:xlink="http://www.w3.org/1999/xlink" width="100%" height="100%" viewBox="0 0 340.000000 250.000000" preserveAspectRatio="xMidYMid meet" color-interpolation-filters="sRGB" style="margin: auto;" data-v-decfdd8a="">
  <rect data-v-decfdd8a="" x="0" y="0" width="100%" height="100%" fill="#0a0619" fill-opacity="0" class="background"></rect>
  <g data-v-decfdd8a="" class="iconmbgsvg" transform="translate(50.147499084472656,72.5)">
    <g fill="#feecfb">
      <g mask="url(#4008535e-86d5-40ce-b3ea-8110a09ba993)" opacity="1" transform="matrix(1,0,0,1,0,0)">
        <g>
          <rect fill="#feecfb" fill-opacity="0" stroke-width="2" x="0" y="0" width="105" height="105" class="image-rect"></rect>
          <svg x="0" y="0" width="105" height="105" class="image-svg-svg primary" style="overflow: visible;">
            <svg xmlns="http://www.w3.org/2000/svg" xmlns:xlink="http://www.w3.org/1999/xlink" fill="#a585e2" version="1.1" x="0px" y="0px" viewBox="10.399999618530273 10.399999618530273 75.19999694824219 75.19999694824219" xml:space="preserve">
              <path d="M48,85.6c20.7,0,37.6-16.9,37.6-37.6S68.7,10.4,48,10.4S10.4,27.3,10.4,48S27.3,85.6,48,85.6z M48,12.4  c19.6,0,35.6,16,35.6,35.6S67.6,83.6,48,83.6S12.4,67.6,12.4,48S28.4,12.4,48,12.4z"></path>
              <path d="M48,75.4c15.1,0,27.4-12.3,27.4-27.4S63.1,20.6,48,20.6S20.6,32.9,20.6,48S32.9,75.4,48,75.4z M48,22.6  C62,22.6,73.4,34,73.4,48S62,73.4,48,73.4S22.6,62,22.6,48S34,22.6,48,22.6z"></path>
            </svg>
          </svg>
        </g>
        <rect width="117" height="117" transform="translate(-6, -6)" style="pointer-events:none;" fill="url(#r0O-ueR-fEBXhF5yxUkke)"></rect>
      </g>
      <g transform="translate(31.294998168945312,35.71500015258789)">
        <g data-gra="path-name" fill-rule="" class="tp-name" opacity="1" transform="matrix(1,0,0,1,0,0)">
          <g transform="scale(1)">
            <g>
              <path d="M31.85 0L3.59 0Q2.98 0 2.53-0.42L2.53-0.42Q2.11-0.87 2.11-1.48L2.11-1.48 2.11-32.09Q2.11-32.7 2.53-33.14L2.53-33.14Q2.98-33.57 3.59-33.57L3.59-33.57Q4.19-33.57 4.61-33.14L4.61-33.14Q5.06-32.7 5.06-32.09L5.06-32.09 5.06-2.95 31.85-2.95Q32.46-2.95 32.88-2.5L32.88-2.5Q33.33-2.08 33.33-1.48L33.33-1.48Q33.33-0.87 32.88-0.42L32.88-0.42Q32.46 0 31.85 0L31.85 0ZM57.88 0L48.44 0Q43.93 0 40.74-3.19L40.74-3.19Q37.55-6.38 37.55-10.89L37.55-10.89 37.55-32.09Q37.55-32.7 37.97-33.14L37.97-33.14Q38.42-33.57 39.02-33.57L39.02-33.57Q39.63-33.57 40.05-33.14L40.05-33.14Q40.5-32.7 40.5-32.09L40.5-32.09 40.5-10.89Q40.5-7.62 42.82-5.27L42.82-5.27Q45.17-2.95 48.44-2.95L48.44-2.95 57.88-2.95Q61.15-2.95 63.49-5.27L63.49-5.27Q65.81-7.62 65.81-10.89L65.81-10.89 65.81-32.09Q65.81-32.7 66.26-33.14L66.26-33.14Q66.68-33.57 67.29-33.57L67.29-33.57Q67.9-33.57 68.32-33.14L68.32-33.14Q68.77-32.7 68.77-32.09L68.77-32.09 68.77-10.89Q68.77-6.38 65.58-3.19L65.58-3.19Q62.38 0 57.88 0L57.88 0ZM95.08 0L74.46 0Q73.85 0 73.41-0.42L73.41-0.42Q72.98-0.87 72.98-1.48L72.98-1.48Q72.98-2.08 73.41-2.5L73.41-2.5Q73.85-2.95 74.46-2.95L74.46-2.95 95.08-2.95Q97.64-2.95 99.43-4.75L99.43-4.75Q101.25-6.57 101.25-9.12L101.25-9.12Q101.25-11.68 99.43-13.5L99.43-13.5Q97.64-15.32 95.08-15.32L95.08-15.32 82.11-15.32Q78.34-15.32 75.67-17.98L75.67-17.98Q72.98-20.67 72.98-24.44L72.98-24.44Q72.98-28.21 75.67-30.9L75.67-30.9Q78.34-33.57 82.11-33.57L82.11-33.57 102.73-33.57Q103.33-33.57 103.75-33.14L103.75-33.14Q104.2-32.7 104.2-32.09L104.2-32.09Q104.2-31.48 103.75-31.06L103.75-31.06Q103.33-30.64 102.73-30.64L102.73-30.64 82.11-30.64Q79.55-30.64 77.73-28.82L77.73-28.82Q75.94-27 75.94-24.44L75.94-24.44Q75.94-21.88 77.73-20.07L77.73-20.07Q79.55-18.25 82.11-18.25L82.11-18.25 95.08-18.25Q98.85-18.25 101.51-15.58L101.51-15.58Q104.2-12.89 104.2-9.12L104.2-9.12Q104.2-5.35 101.51-2.69L101.51-2.69Q98.85 0 95.08 0L95.08 0ZM138.16-33.57L109.9-33.57Q109.29-33.57 108.84-33.14L108.84-33.14Q108.42-32.7 108.42-32.09L108.42-32.09Q108.42-31.48 108.84-31.06L108.84-31.06Q109.29-30.64 109.9-30.64L109.9-30.64 123.13-30.64 123.13-1.48Q123.13-0.87 123.58-0.42L123.58-0.42Q124 0 124.61 0L124.61 0Q125.22 0 125.67-0.42L125.67-0.42Q126.09-0.87 126.09-1.48L126.09-1.48 126.09-30.64 138.16-30.64Q138.77-30.64 139.19-31.06L139.19-31.06Q139.64-31.48 139.64-32.09L139.64-32.09Q139.64-32.7 139.19-33.14L139.19-33.14Q138.77-33.57 138.16-33.57L138.16-33.57ZM165.96-18.25L146.81-18.25 146.81-30.64 165.96-30.64Q168.51-30.64 170.31-28.82L170.31-28.82Q172.13-27 172.13-24.44L172.13-24.44Q172.13-21.88 170.31-20.07L170.31-20.07Q168.51-18.25 165.96-18.25L165.96-18.25ZM170.25-16.4Q172.44-17.59 173.73-19.7L173.73-19.7Q175.08-21.88 175.08-24.44L175.08-24.44Q175.08-28.21 172.39-30.9L172.39-30.9Q169.73-33.57 165.96-33.57L165.96-33.57 145.34-33.57Q144.73-33.57 144.28-33.14L144.28-33.14Q143.86-32.7 143.86-32.09L143.86-32.09 143.86-1.48Q143.86-0.87 144.28-0.42L144.28-0.42Q144.73 0 145.34 0L145.34 0Q145.94 0 146.36-0.42L146.36-0.42Q146.81-0.87 146.81-1.48L146.81-1.48 146.81-15.32 164.19-15.32Q167.46-15.32 169.8-12.97L169.8-12.97Q172.13-10.65 172.13-7.36L172.13-7.36 172.13-1.48Q172.13-0.87 172.57-0.42L172.57-0.42Q173 0 173.6 0L173.6 0Q174.21 0 174.63-0.42L174.63-0.42Q175.08-0.87 175.08-1.48L175.08-1.48 175.08-7.36Q175.08-13.16 170.25-16.4L170.25-16.4ZM207.56-18.25L182.25-18.25 182.25-22.68Q182.25-25.97 184.57-28.29L184.57-28.29Q186.92-30.64 190.19-30.64L190.19-30.64 199.63-30.64Q202.9-30.64 205.24-28.29L205.24-28.29Q207.56-25.97 207.56-22.68L207.56-22.68 207.56-18.25ZM199.63-33.57L190.19-33.57Q185.68-33.57 182.49-30.38L182.49-30.38Q179.3-27.18 179.3-22.68L179.3-22.68 179.3-1.48Q179.3-0.87 179.72-0.42L179.72-0.42Q180.17 0 180.77 0L180.77 0Q181.38 0 181.8-0.42L181.8-0.42Q182.25-0.87 182.25-1.48L182.25-1.48 182.25-15.32 207.56-15.32 207.56-1.48Q207.56-0.87 208.01-0.42L208.01-0.42Q208.43 0 209.04 0L209.04 0Q209.65 0 210.07-0.42L210.07-0.42Q210.52-0.87 210.52-1.48L210.52-1.48 210.52-22.68Q210.52-27.18 207.33-30.38L207.33-30.38Q204.13-33.57 199.63-33.57L199.63-33.57Z" transform="translate(-2.109999895095825, 33.56999969482422)"></path>
            </g>
          </g>
        </g>
      </g>
    </g>
  </g>
  <mask id="4c926f25-3f4b-4af2-8755-9dac6267727f">
    <g fill="white">
      <g>
        <rect fill-opacity="1" stroke-width="2" x="0" y="0" width="105" height="105" class="image-rect"></rect>
        <svg x="0" y="0" width="105" height="105" class="image-svg-svg primary" style="overflow: visible;">
          <svg xmlns="http://www.w3.org/2000/svg" xmlns:xlink="http://www.w3.org/1999/xlink" version="1.1" x="0px" y="0px" viewBox="10.399999618530273 10.399999618530273 75.19999694824219 75.19999694824219" xml:space="preserve">
            <path d="M48,85.6c20.7,0,37.6-16.9,37.6-37.6S68.7,10.4,48,10.4S10.4,27.3,10.4,48S27.3,85.6,48,85.6z M48,12.4  c19.6,0,35.6,16,35.6,35.6S67.6,83.6,48,83.6S12.4,67.6,12.4,48S28.4,12.4,48,12.4z"></path>
            <path d="M48,75.4c15.1,0,27.4-12.3,27.4-27.4S63.1,20.6,48,20.6S20.6,32.9,20.6,48S32.9,75.4,48,75.4z M48,22.6  C62,22.6,73.4,34,73.4,48S62,73.4,48,73.4S22.6,62,22.6,48S34,22.6,48,22.6z"></path>
          </svg>
        </svg>
      </g>
    </g>
    <g transform="translate(31.294998168945312,35.71500015258789)">
      <rect fill="black" fill-opacity="1" x="-3.5" y="-3.5" width="215.41000366210938" height="40.56999969482422"></rect>
      <rect fill="black" fill-opacity="1" x="-3.5" y="-3.5"></rect>
    </g>
    <g transform="translate(31.294998168945312,35.71500015258789)" fill="black">
      <g data-gra="path-name" fill-rule="" class="tp-name" opacity="1" transform="matrix(1,0,0,1,0,0)">
        <g transform="scale(1)">
          <g>
            <path d="M31.85 0L3.59 0Q2.98 0 2.53-0.42L2.53-0.42Q2.11-0.87 2.11-1.48L2.11-1.48 2.11-32.09Q2.11-32.7 2.53-33.14L2.53-33.14Q2.98-33.57 3.59-33.57L3.59-33.57Q4.19-33.57 4.61-33.14L4.61-33.14Q5.06-32.7 5.06-32.09L5.06-32.09 5.06-2.95 31.85-2.95Q32.46-2.95 32.88-2.5L32.88-2.5Q33.33-2.08 33.33-1.48L33.33-1.48Q33.33-0.87 32.88-0.42L32.88-0.42Q32.46 0 31.85 0L31.85 0ZM57.88 0L48.44 0Q43.93 0 40.74-3.19L40.74-3.19Q37.55-6.38 37.55-10.89L37.55-10.89 37.55-32.09Q37.55-32.7 37.97-33.14L37.97-33.14Q38.42-33.57 39.02-33.57L39.02-33.57Q39.63-33.57 40.05-33.14L40.05-33.14Q40.5-32.7 40.5-32.09L40.5-32.09 40.5-10.89Q40.5-7.62 42.82-5.27L42.82-5.27Q45.17-2.95 48.44-2.95L48.44-2.95 57.88-2.95Q61.15-2.95 63.49-5.27L63.49-5.27Q65.81-7.62 65.81-10.89L65.81-10.89 65.81-32.09Q65.81-32.7 66.26-33.14L66.26-33.14Q66.68-33.57 67.29-33.57L67.29-33.57Q67.9-33.57 68.32-33.14L68.32-33.14Q68.77-32.7 68.77-32.09L68.77-32.09 68.77-10.89Q68.77-6.38 65.58-3.19L65.58-3.19Q62.38 0 57.88 0L57.88 0ZM95.08 0L74.46 0Q73.85 0 73.41-0.42L73.41-0.42Q72.98-0.87 72.98-1.48L72.98-1.48Q72.98-2.08 73.41-2.5L73.41-2.5Q73.85-2.95 74.46-2.95L74.46-2.95 95.08-2.95Q97.64-2.95 99.43-4.75L99.43-4.75Q101.25-6.57 101.25-9.12L101.25-9.12Q101.25-11.68 99.43-13.5L99.43-13.5Q97.64-15.32 95.08-15.32L95.08-15.32 82.11-15.32Q78.34-15.32 75.67-17.98L75.67-17.98Q72.98-20.67 72.98-24.44L72.98-24.44Q72.98-28.21 75.67-30.9L75.67-30.9Q78.34-33.57 82.11-33.57L82.11-33.57 102.73-33.57Q103.33-33.57 103.75-33.14L103.75-33.14Q104.2-32.7 104.2-32.09L104.2-32.09Q104.2-31.48 103.75-31.06L103.75-31.06Q103.33-30.64 102.73-30.64L102.73-30.64 82.11-30.64Q79.55-30.64 77.73-28.82L77.73-28.82Q75.94-27 75.94-24.44L75.94-24.44Q75.94-21.88 77.73-20.07L77.73-20.07Q79.55-18.25 82.11-18.25L82.11-18.25 95.08-18.25Q98.85-18.25 101.51-15.58L101.51-15.58Q104.2-12.89 104.2-9.12L104.2-9.12Q104.2-5.35 101.51-2.69L101.51-2.69Q98.85 0 95.08 0L95.08 0ZM138.16-33.57L109.9-33.57Q109.29-33.57 108.84-33.14L108.84-33.14Q108.42-32.7 108.42-32.09L108.42-32.09Q108.42-31.48 108.84-31.06L108.84-31.06Q109.29-30.64 109.9-30.64L109.9-30.64 123.13-30.64 123.13-1.48Q123.13-0.87 123.58-0.42L123.58-0.42Q124 0 124.61 0L124.61 0Q125.22 0 125.67-0.42L125.67-0.42Q126.09-0.87 126.09-1.48L126.09-1.48 126.09-30.64 138.16-30.64Q138.77-30.64 139.19-31.06L139.19-31.06Q139.64-31.48 139.64-32.09L139.64-32.09Q139.64-32.7 139.19-33.14L139.19-33.14Q138.77-33.57 138.16-33.57L138.16-33.57ZM165.96-18.25L146.81-18.25 146.81-30.64 165.96-30.64Q168.51-30.64 170.31-28.82L170.31-28.82Q172.13-27 172.13-24.44L172.13-24.44Q172.13-21.88 170.31-20.07L170.31-20.07Q168.51-18.25 165.96-18.25L165.96-18.25ZM170.25-16.4Q172.44-17.59 173.73-19.7L173.73-19.7Q175.08-21.88 175.08-24.44L175.08-24.44Q175.08-28.21 172.39-30.9L172.39-30.9Q169.73-33.57 165.96-33.57L165.96-33.57 145.34-33.57Q144.73-33.57 144.28-33.14L144.28-33.14Q143.86-32.7 143.86-32.09L143.86-32.09 143.86-1.48Q143.86-0.87 144.28-0.42L144.28-0.42Q144.73 0 145.34 0L145.34 0Q145.94 0 146.36-0.42L146.36-0.42Q146.81-0.87 146.81-1.48L146.81-1.48 146.81-15.32 164.19-15.32Q167.46-15.32 169.8-12.97L169.8-12.97Q172.13-10.65 172.13-7.36L172.13-7.36 172.13-1.48Q172.13-0.87 172.57-0.42L172.57-0.42Q173 0 173.6 0L173.6 0Q174.21 0 174.63-0.42L174.63-0.42Q175.08-0.87 175.08-1.48L175.08-1.48 175.08-7.36Q175.08-13.16 170.25-16.4L170.25-16.4ZM207.56-18.25L182.25-18.25 182.25-22.68Q182.25-25.97 184.57-28.29L184.57-28.29Q186.92-30.64 190.19-30.64L190.19-30.64 199.63-30.64Q202.9-30.64 205.24-28.29L205.24-28.29Q207.56-25.97 207.56-22.68L207.56-22.68 207.56-18.25ZM199.63-33.57L190.19-33.57Q185.68-33.57 182.49-30.38L182.49-30.38Q179.3-27.18 179.3-22.68L179.3-22.68 179.3-1.48Q179.3-0.87 179.72-0.42L179.72-0.42Q180.17 0 180.77 0L180.77 0Q181.38 0 181.8-0.42L181.8-0.42Q182.25-0.87 182.25-1.48L182.25-1.48 182.25-15.32 207.56-15.32 207.56-1.48Q207.56-0.87 208.01-0.42L208.01-0.42Q208.43 0 209.04 0L209.04 0Q209.65 0 210.07-0.42L210.07-0.42Q210.52-0.87 210.52-1.48L210.52-1.48 210.52-22.68Q210.52-27.18 207.33-30.38L207.33-30.38Q204.13-33.57 199.63-33.57L199.63-33.57Z" transform="translate(-2.109999895095825, 33.56999969482422)"></path>
          </g>
        </g>
      </g>
    </g>
  </mask>
  <defs></defs>
  <defs>
    <filter id="1227c425-a0ff-4e03-9b14-ee8184e1ab4e" filterUnits="userSpaceOnUse">
      <feColorMatrix type="matrix" values="0 0 0 0 0.99609375  0 0 0 0 0.99609375  0 0 0 0 0.99609375  0 0 0 1 0"></feColorMatrix>
    </filter>
    <linearGradient x1="0" y1="1" x2="0" y2="0" id="r0O-ueR-fEBXhF5yxUkke">
      <stop offset="0%" stop-color="#fdcbf0"></stop>
      <stop offset="100%" stop-color="#e6dee9"></stop>
    </linearGradient>
    <filter id="42443b3f1de60f6b6fd3b6a9844b4764" filterUnits="objectBoundingBox">
      <feColorMatrix type="matrix" values="0 0 0 0 0.99609375  0 0 0 0 0.99609375  0 0 0 0 0.99609375  0 0 0 1 0"></feColorMatrix>
    </filter>
  </defs>
  <mask id="4008535e-86d5-40ce-b3ea-8110a09ba993">
    <g mask="url(#4c926f25-3f4b-4af2-8755-9dac6267727f)" filter="url(#1227c425-a0ff-4e03-9b14-ee8184e1ab4e)">
      <g>
        <rect fill="#feecfb" fill-opacity="0" stroke-width="2" x="0" y="0" width="105" height="105" class="image-rect"></rect>
        <svg x="0" y="0" width="105" height="105" class="image-svg-svg primary" style="overflow: visible;">
          <svg xmlns="http://www.w3.org/2000/svg" xmlns:xlink="http://www.w3.org/1999/xlink" fill="#a585e2" version="1.1" x="0px" y="0px" viewBox="10.399999618530273 10.399999618530273 75.19999694824219 75.19999694824219" xml:space="preserve">
            <path d="M48,85.6c20.7,0,37.6-16.9,37.6-37.6S68.7,10.4,48,10.4S10.4,27.3,10.4,48S27.3,85.6,48,85.6z M48,12.4  c19.6,0,35.6,16,35.6,35.6S67.6,83.6,48,83.6S12.4,67.6,12.4,48S28.4,12.4,48,12.4z"></path>
            <path d="M48,75.4c15.1,0,27.4-12.3,27.4-27.4S63.1,20.6,48,20.6S20.6,32.9,20.6,48S32.9,75.4,48,75.4z M48,22.6  C62,22.6,73.4,34,73.4,48S62,73.4,48,73.4S22.6,62,22.6,48S34,22.6,48,22.6z"></path>
          </svg>
        </svg>
      </g>
    </g>
  </mask>
</svg>
