<?xml version="1.0" encoding="UTF-8"?>
<svg xmlns="http://www.w3.org/2000/svg" xmlns:xlink="http://www.w3.org/1999/xlink" data-v-decfdd8a="" version="1.0" width="100%" height="100%" viewBox="0 0 340.000000 250.000000" preserveAspectRatio="xMidYMid meet" color-interpolation-filters="sRGB" style="margin: auto;">
  <rect data-v-decfdd8a="" x="0" y="0" width="100%" height="100%" fill="#f4ebe4" fill-opacity="0" class="background"></rect>
  <rect data-v-decfdd8a="" x="0" y="0" width="100%" height="100%" fill="url(#watermark)" fill-opacity="1" class="watermarklayer"></rect>
  <g data-v-decfdd8a="" fill="#18212a" class="icon-text-wrapper icon-svg-group iconsvg" transform="translate(66.5999984741211,97.17429991066456)">
    <g class="iconsvg-imagesvg" transform="matrix(1,0,0,1,0,0)" opacity="1">
      <g>
        <rect fill="#18212a" fill-opacity="0" stroke-width="2" x="0" y="0" width="60" height="55.65139963270076" class="image-rect"></rect>
        <svg filter="url(#colors542536483)" x="0" y="0" width="60" height="55.65139963270076" class="image-svg-svg primary" style="overflow: visible;">
          <svg xmlns="http://www.w3.org/2000/svg" viewBox="0.9403173327445984 0.4172359108924866 98.11968231201172 91.00850677490234">
            <g fill="#333333">
              <circle cx="52.14" cy="36.19" r="2.96"></circle>
              <circle cx="55.53" cy="42.1" r="2.66"></circle>
              <circle cx="58.93" cy="48.02" r="2.4"></circle>
              <circle cx="62.32" cy="53.93" r="2.13"></circle>
              <circle cx="65.72" cy="59.84" r="1.86"></circle>
              <circle cx="69.12" cy="65.76" r="1.6"></circle>
              <circle cx="72.51" cy="71.67" r="1.33"></circle>
              <circle cx="75.91" cy="77.59" r="1.06"></circle>
              <circle cx="79.3" cy="83.5" r=".8"></circle>
              <circle cx="55.93" cy="31.13" r="2.96"></circle>
              <circle cx="59.32" cy="37.05" r="2.66"></circle>
              <circle cx="62.72" cy="42.96" r="2.4"></circle>
              <circle cx="66.12" cy="48.88" r="2.13"></circle>
              <circle cx="69.51" cy="54.79" r="1.86"></circle>
              <circle cx="72.91" cy="60.7" r="1.6"></circle>
              <circle cx="76.3" cy="66.62" r="1.33"></circle>
              <circle cx="79.7" cy="72.53" r="1.06"></circle>
              <circle cx="83.09" cy="78.45" r=".8"></circle>
              <circle cx="59.72" cy="26.08" r="2.96"></circle>
              <circle cx="63.12" cy="31.99" r="2.66"></circle>
              <circle cx="66.51" cy="37.91" r="2.4"></circle>
              <circle cx="69.91" cy="43.82" r="2.13"></circle>
              <circle cx="73.3" cy="49.73" r="1.86"></circle>
              <circle cx="76.7" cy="55.65" r="1.6"></circle>
              <circle cx="80.09" cy="61.56" r="1.33"></circle>
              <circle cx="83.49" cy="67.48" r="1.06"></circle>
              <circle cx="86.88" cy="73.39" r=".8"></circle>
              <circle cx="63.51" cy="21.02" r="2.96"></circle>
              <circle cx="66.91" cy="26.94" r="2.66"></circle>
              <circle cx="70.3" cy="32.85" r="2.4"></circle>
              <circle cx="73.7" cy="38.77" r="2.13"></circle>
              <circle cx="77.09" cy="44.68" r="1.86"></circle>
              <circle cx="80.49" cy="50.59" r="1.6"></circle>
              <circle cx="83.88" cy="56.51" r="1.33"></circle>
              <circle cx="87.28" cy="62.42" r="1.06"></circle>
              <circle cx="90.68" cy="68.34" r=".8"></circle>
              <circle cx="67.3" cy="15.97" r="2.96"></circle>
              <circle cx="70.7" cy="21.88" r="2.66"></circle>
              <circle cx="74.09" cy="27.8" r="2.4"></circle>
              <circle cx="77.49" cy="33.71" r="2.13"></circle>
              <circle cx="80.88" cy="39.63" r="1.86"></circle>
              <circle cx="84.28" cy="45.54" r="1.6"></circle>
              <circle cx="87.68" cy="51.45" r="1.33"></circle>
              <circle cx="91.07" cy="57.37" r="1.06"></circle>
              <circle cx="94.47" cy="63.28" r=".8"></circle>
              <circle cx="71.09" cy="10.91" r="2.96"></circle>
              <circle cx="74.49" cy="16.83" r="2.66"></circle>
              <circle cx="77.89" cy="22.74" r="2.4"></circle>
              <circle cx="81.28" cy="28.66" r="2.13"></circle>
              <circle cx="84.68" cy="34.57" r="1.86"></circle>
              <circle cx="88.07" cy="40.48" r="1.6"></circle>
              <circle cx="91.47" cy="46.4" r="1.33"></circle>
              <circle cx="94.86" cy="52.31" r="1.06"></circle>
              <circle cx="98.26" cy="58.23" r=".8"></circle>
              <ellipse transform="rotate(-59.124 57.817 59.217)" cx="57.82" cy="59.22" rx="2.96" ry="2.96"></ellipse>
              <ellipse transform="rotate(-59.132 50.996 59.094)" cx="51" cy="59.1" rx="2.66" ry="2.66"></ellipse>
              <ellipse transform="rotate(-59.116 44.182 58.977)" cx="44.18" cy="58.98" rx="2.4" ry="2.4"></ellipse>
              <ellipse transform="rotate(-59.129 37.363 58.857)" cx="37.36" cy="58.85" rx="2.13" ry="2.13"></ellipse>
              <ellipse transform="rotate(-59.129 30.543 58.735)" cx="30.54" cy="58.73" rx="1.86" ry="1.86"></ellipse>
              <ellipse transform="rotate(-59.129 23.726 58.616)" cx="23.73" cy="58.61" rx="1.6" ry="1.6"></ellipse>
              <ellipse transform="rotate(-59.116 16.909 58.494)" cx="16.91" cy="58.49" rx="1.33" ry="1.33"></ellipse>
              <ellipse transform="rotate(-59.141 10.088 58.371)" cx="10.09" cy="58.37" rx="1.06" ry="1.06"></ellipse>
              <ellipse transform="rotate(-59.129 3.27 58.25)" cx="3.27" cy="58.25" rx=".8" ry=".8"></ellipse>
              <ellipse transform="rotate(-59.124 60.21 65.065)" cx="60.21" cy="65.07" rx="2.96" ry="2.96"></ellipse>
              <ellipse transform="rotate(-59.116 53.393 64.947)" cx="53.39" cy="64.95" rx="2.66" ry="2.66"></ellipse>
              <ellipse transform="rotate(-59.121 46.574 64.828)" cx="46.57" cy="64.82" rx="2.39" ry="2.39"></ellipse>
              <ellipse transform="rotate(-59.129 39.756 64.706)" cx="39.75" cy="64.7" rx="2.13" ry="2.13"></ellipse>
              <ellipse transform="rotate(-59.121 32.937 64.585)" cx="32.94" cy="64.58" rx="1.86" ry="1.86"></ellipse>
              <ellipse transform="rotate(-59.136 26.121 64.463)" cx="26.12" cy="64.46" rx="1.6" ry="1.6"></ellipse>
              <ellipse transform="rotate(-59.124 19.3 64.339)" cx="19.3" cy="64.34" rx="1.33" ry="1.33"></ellipse>
              <ellipse transform="rotate(-59.095 12.48 64.22)" cx="12.48" cy="64.22" rx="1.06" ry="1.06"></ellipse>
              <ellipse transform="rotate(-59.116 5.664 64.1)" cx="5.66" cy="64.1" rx=".8" ry=".8"></ellipse>
              <ellipse transform="rotate(-59.124 62.598 70.912)" cx="62.6" cy="70.91" rx="2.96" ry="2.96"></ellipse>
              <ellipse transform="rotate(-59.124 55.78 70.791)" cx="55.78" cy="70.79" rx="2.66" ry="2.66"></ellipse>
              <ellipse transform="rotate(-59.116 48.967 70.674)" cx="48.97" cy="70.67" rx="2.4" ry="2.4"></ellipse>
              <ellipse transform="rotate(-59.111 42.147 70.55)" cx="42.15" cy="70.55" rx="2.13" ry="2.13"></ellipse>
              <ellipse transform="rotate(-59.116 35.328 70.43)" cx="35.33" cy="70.43" rx="1.86" ry="1.86"></ellipse>
              <ellipse transform="rotate(-59.129 28.508 70.31)" cx="28.51" cy="70.31" rx="1.6" ry="1.6"></ellipse>
              <ellipse transform="rotate(-59.129 21.69 70.188)" cx="21.69" cy="70.19" rx="1.33" ry="1.33"></ellipse>
              <ellipse transform="rotate(-59.095 14.875 70.07)" cx="14.87" cy="70.07" rx="1.06" ry="1.06"></ellipse>
              <ellipse transform="rotate(-59.116 8.054 69.944)" cx="8.06" cy="69.95" rx=".8" ry=".8"></ellipse>
              <ellipse transform="rotate(-59.116 64.995 76.764)" cx="65" cy="76.76" rx="2.96" ry="2.96"></ellipse>
              <ellipse transform="rotate(-59.124 58.172 76.639)" cx="58.18" cy="76.64" rx="2.66" ry="2.66"></ellipse>
              <ellipse transform="rotate(-59.116 51.36 76.523)" cx="51.36" cy="76.52" rx="2.4" ry="2.4"></ellipse>
              <ellipse transform="rotate(-59.124 44.537 76.396)" cx="44.54" cy="76.4" rx="2.13" ry="2.13"></ellipse>
              <ellipse transform="rotate(-59.129 37.718 76.278)" cx="37.72" cy="76.28" rx="1.86" ry="1.86"></ellipse>
              <ellipse transform="rotate(-59.116 30.904 76.159)" cx="30.9" cy="76.16" rx="1.6" ry="1.6"></ellipse>
              <ellipse transform="rotate(-59.124 24.086 76.036)" cx="24.08" cy="76.04" rx="1.33" ry="1.33"></ellipse>
              <ellipse transform="rotate(-59.141 17.268 75.919)" cx="17.27" cy="75.92" rx="1.06" ry="1.06"></ellipse>
              <ellipse transform="rotate(-59.163 10.448 75.797)" cx="10.45" cy="75.79" rx=".8" ry=".8"></ellipse>
              <ellipse transform="rotate(-59.129 67.392 82.616)" cx="67.39" cy="82.61" rx="2.96" ry="2.96"></ellipse>
              <ellipse transform="rotate(-59.124 60.57 82.49)" cx="60.57" cy="82.49" rx="2.66" ry="2.66"></ellipse>
              <ellipse transform="rotate(-59.124 53.75 82.367)" cx="53.75" cy="82.37" rx="2.39" ry="2.39"></ellipse>
              <ellipse transform="rotate(-59.124 46.934 82.247)" cx="46.93" cy="82.25" rx="2.13" ry="2.13"></ellipse>
              <ellipse transform="rotate(-59.124 40.113 82.124)" cx="40.11" cy="82.13" rx="1.86" ry="1.86"></ellipse>
              <ellipse transform="rotate(-59.116 33.295 82.006)" cx="33.3" cy="82.01" rx="1.6" ry="1.6"></ellipse>
              <ellipse transform="rotate(-59.124 26.478 81.883)" cx="26.48" cy="81.88" rx="1.33" ry="1.33"></ellipse>
              <ellipse transform="rotate(-59.124 19.656 81.758)" cx="19.66" cy="81.76" rx="1.06" ry="1.06"></ellipse>
              <ellipse transform="rotate(-59.129 12.838 81.642)" cx="12.84" cy="81.64" rx=".8" ry=".8"></ellipse>
              <ellipse transform="rotate(-59.116 69.785 88.463)" cx="69.78" cy="88.46" rx="2.96" ry="2.96"></ellipse>
              <ellipse transform="rotate(-59.124 62.959 88.335)" cx="62.96" cy="88.34" rx="2.66" ry="2.66"></ellipse>
              <ellipse transform="rotate(-59.124 56.143 88.216)" cx="56.14" cy="88.22" rx="2.4" ry="2.4"></ellipse>
              <ellipse transform="rotate(-59.132 49.323 88.091)" cx="49.33" cy="88.1" rx="2.13" ry="2.13"></ellipse>
              <ellipse transform="rotate(-59.111 42.507 87.973)" cx="42.51" cy="87.98" rx="1.86" ry="1.86"></ellipse>
              <ellipse transform="rotate(-59.124 35.685 87.85)" cx="35.69" cy="87.85" rx="1.6" ry="1.6"></ellipse>
              <ellipse transform="rotate(-59.136 28.868 87.73)" cx="28.87" cy="87.73" rx="1.33" ry="1.33"></ellipse>
              <ellipse transform="rotate(-59.111 22.052 87.61)" cx="22.05" cy="87.61" rx="1.06" ry="1.06"></ellipse>
              <ellipse transform="rotate(-59.129 15.231 87.492)" cx="15.23" cy="87.49" rx=".8" ry=".8"></ellipse>
              <ellipse transform="rotate(-28.249 35.14 52.274)" cx="35.14" cy="52.27" rx="2.96" ry="2.96"></ellipse>
              <ellipse transform="rotate(-28.237 38.745 46.487)" cx="38.74" cy="46.48" rx="2.66" ry="2.66"></ellipse>
              <ellipse transform="rotate(-28.237 42.345 40.694)" cx="42.34" cy="40.69" rx="2.4" ry="2.4"></ellipse>
              <ellipse transform="rotate(-28.249 45.942 34.901)" cx="45.95" cy="34.9" rx="2.13" ry="2.13"></ellipse>
              <ellipse transform="rotate(-28.237 49.552 29.115)" cx="49.55" cy="29.11" rx="1.86" ry="1.86"></ellipse>
              <ellipse transform="rotate(-28.249 53.16 23.325)" cx="53.15" cy="23.32" rx="1.6" ry="1.6"></ellipse>
              <ellipse transform="rotate(-28.244 56.764 17.536)" cx="56.76" cy="17.53" rx="1.33" ry="1.33"></ellipse>
              <ellipse transform="rotate(-28.249 60.36 11.745)" cx="60.36" cy="11.75" rx="1.06" ry="1.06"></ellipse>
              <ellipse transform="rotate(-28.257 63.965 5.955)" cx="63.96" cy="5.95" rx=".8" ry=".8"></ellipse>
              <ellipse transform="rotate(-28.244 28.891 51.327)" cx="28.89" cy="51.32" rx="2.96" ry="2.96"></ellipse>
              <ellipse transform="rotate(-28.249 32.49 45.53)" cx="32.49" cy="45.53" rx="2.66" ry="2.66"></ellipse>
              <ellipse transform="rotate(-28.241 36.094 39.742)" cx="36.1" cy="39.75" rx="2.4" ry="2.4"></ellipse>
              <ellipse transform="rotate(-28.24 39.7 33.961)" cx="39.7" cy="33.96" rx="2.13" ry="2.13"></ellipse>
              <ellipse transform="rotate(-28.261 43.3 28.164)" cx="43.3" cy="28.17" rx="1.86" ry="1.86"></ellipse>
              <ellipse transform="rotate(-28.249 46.907 22.376)" cx="46.91" cy="22.38" rx="1.6" ry="1.6"></ellipse>
              <ellipse transform="rotate(-28.249 50.509 16.586)" cx="50.51" cy="16.59" rx="1.33" ry="1.33"></ellipse>
              <ellipse transform="rotate(-28.213 54.117 10.8)" cx="54.11" cy="10.8" rx="1.07" ry="1.06"></ellipse>
              <ellipse transform="rotate(-28.257 57.72 5.008)" cx="57.72" cy="5.01" rx=".8" ry=".8"></ellipse>
              <ellipse transform="rotate(-28.241 22.642 50.374)" cx="22.64" cy="50.38" rx="2.96" ry="2.96"></ellipse>
              <ellipse transform="rotate(-28.244 26.247 44.588)" cx="26.25" cy="44.59" rx="2.66" ry="2.66"></ellipse>
              <ellipse transform="rotate(-28.244 29.852 38.8)" cx="29.85" cy="38.8" rx="2.4" ry="2.4"></ellipse>
              <ellipse transform="rotate(-28.24 33.453 33.013)" cx="33.45" cy="33.01" rx="2.13" ry="2.13"></ellipse>
              <ellipse transform="rotate(-28.24 37.055 27.223)" cx="37.06" cy="27.22" rx="1.86" ry="1.86"></ellipse>
              <ellipse transform="rotate(-28.257 40.66 21.429)" cx="40.66" cy="21.43" rx="1.6" ry="1.6"></ellipse>
              <ellipse transform="rotate(-28.254 44.26 15.638)" cx="44.26" cy="15.64" rx="1.33" ry="1.33"></ellipse>
              <ellipse transform="rotate(-28.24 47.868 9.854)" cx="47.87" cy="9.85" rx="1.06" ry="1.06"></ellipse>
              <ellipse transform="rotate(-28.228 51.469 4.059)" cx="51.47" cy="4.06" rx=".8" ry=".8"></ellipse>
              <ellipse transform="rotate(-28.244 16.398 49.433)" cx="16.4" cy="49.43" rx="2.96" ry="2.96"></ellipse>
              <ellipse transform="rotate(-28.244 20 43.64)" cx="20" cy="43.64" rx="2.66" ry="2.66"></ellipse>
              <ellipse transform="rotate(-28.244 23.603 37.85)" cx="23.6" cy="37.85" rx="2.4" ry="2.4"></ellipse>
              <ellipse transform="rotate(-28.24 27.204 32.064)" cx="27.21" cy="32.06" rx="2.13" ry="2.13"></ellipse>
              <ellipse transform="rotate(-28.249 30.806 26.269)" cx="30.81" cy="26.27" rx="1.86" ry="1.86"></ellipse>
              <ellipse transform="rotate(-28.249 34.412 20.48)" cx="34.41" cy="20.48" rx="1.6" ry="1.6"></ellipse>
              <ellipse transform="rotate(-28.237 38.02 14.692)" cx="38.02" cy="14.69" rx="1.33" ry="1.33"></ellipse>
              <ellipse transform="rotate(-28.254 41.615 8.9)" cx="41.62" cy="8.9" rx="1.06" ry="1.06"></ellipse>
              <ellipse transform="rotate(-28.254 45.221 3.11)" cx="45.22" cy="3.11" rx=".8" ry=".8"></ellipse>
              <ellipse transform="rotate(-28.244 10.149 48.484)" cx="10.15" cy="48.48" rx="2.96" ry="2.96"></ellipse>
              <ellipse transform="rotate(-28.254 13.75 42.689)" cx="13.75" cy="42.69" rx="2.66" ry="2.66"></ellipse>
              <ellipse transform="rotate(-28.24 17.352 36.906)" cx="17.35" cy="36.9" rx="2.4" ry="2.4"></ellipse>
              <ellipse transform="rotate(-28.215 20.96 31.113)" cx="20.96" cy="31.11" rx="2.13" ry="2.13"></ellipse>
              <ellipse transform="rotate(-28.241 24.561 25.32)" cx="24.56" cy="25.32" rx="1.86" ry="1.86"></ellipse>
              <ellipse transform="rotate(-28.249 28.165 19.532)" cx="28.16" cy="19.53" rx="1.6" ry="1.6"></ellipse>
              <ellipse transform="rotate(-28.241 31.766 13.742)" cx="31.77" cy="13.74" rx="1.33" ry="1.33"></ellipse>
              <ellipse transform="rotate(-28.261 35.37 7.952)" cx="35.37" cy="7.95" rx="1.06" ry="1.06"></ellipse>
              <ellipse transform="rotate(-28.24 38.976 2.168)" cx="38.98" cy="2.16" rx=".8" ry=".8"></ellipse>
              <ellipse transform="rotate(-28.241 3.9 47.529)" cx="3.9" cy="47.53" rx="2.96" ry="2.96"></ellipse>
              <ellipse transform="rotate(-28.244 7.504 41.744)" cx="7.5" cy="41.74" rx="2.66" ry="2.66"></ellipse>
              <ellipse transform="rotate(-28.241 11.107 35.95)" cx="11.11" cy="35.95" rx="2.4" ry="2.4"></ellipse>
              <ellipse transform="rotate(-28.244 14.712 30.165)" cx="14.71" cy="30.16" rx="2.13" ry="2.13"></ellipse>
              <ellipse transform="rotate(-28.237 18.313 24.374)" cx="18.31" cy="24.37" rx="1.86" ry="1.86"></ellipse>
              <ellipse transform="rotate(-28.237 21.915 18.584)" cx="21.92" cy="18.58" rx="1.6" ry="1.6"></ellipse>
              <ellipse transform="rotate(-28.225 25.523 12.796)" cx="25.52" cy="12.79" rx="1.33" ry="1.33"></ellipse>
              <ellipse transform="rotate(-28.241 29.123 7.004)" cx="29.12" cy="7" rx="1.06" ry="1.06"></ellipse>
              <ellipse transform="rotate(-28.225 32.725 1.217)" cx="32.73" cy="1.22" rx=".8" ry=".8"></ellipse>
            </g>
          </svg>
        </svg>
        <defs>
          <filter id="colors542536483">
            <feColorMatrix type="matrix" values="0 0 0 0 0.10546875  0 0 0 0 0.2890625  0 0 0 0 0.609375  0 0 0 1 0" class="icon-fecolormatrix"></feColorMatrix>
          </filter>
          <filter id="colorsf1085172821">
            <feColorMatrix type="matrix" values="0 0 0 0 0.99609375  0 0 0 0 0.99609375  0 0 0 0 0.99609375  0 0 0 1 0" class="icon-fecolormatrix"></feColorMatrix>
          </filter>
          <filter id="colorsb7068613200">
            <feColorMatrix type="matrix" values="0 0 0 0 0  0 0 0 0 0  0 0 0 0 0  0 0 0 1 0" class="icon-fecolormatrix"></feColorMatrix>
          </filter>
        </defs>
      </g>
    </g>
    <g transform="translate(67,3.2557010650634766)">
      <g data-gra="path-name" fill-rule="" class="tp-name iconsvg-namesvg" opacity="1" transform="matrix(1,0,0,1,0,0)">
        <g transform="scale(1)">
          <g>
            <path d="M24.3 0L3.66 0 3.66-48.6 12.54-48.6 12.54-6.12 24.3-6.12 24.3 0ZM33.96 0.54L33.96 0.54Q31.92 0.54 30.6-0.51 29.28-1.56 28.68-3.33 28.08-5.1 28.08-7.08L28.08-7.08 28.08-34.68 36.24-34.68 36.24-8.58Q36.24-7.02 36.75-6.15 37.26-5.28 38.64-5.28L38.64-5.28Q39.54-5.28 40.47-5.76 41.4-6.24 42.3-6.9L42.3-6.9 42.3-34.68 50.46-34.68 50.46 0 42.3 0 42.3-3.3Q40.56-1.62 38.46-0.54 36.36 0.54 33.96 0.54ZM66.18 0.54L66.18 0.54Q61.8 0.54 58.98-1.8 56.16-4.14 54.96-8.64L54.96-8.64 61.02-10.98Q61.74-8.16 62.94-6.66 64.14-5.16 66.06-5.16L66.06-5.16Q67.5-5.16 68.22-5.88 68.94-6.6 68.94-7.86L68.94-7.86Q68.94-9.3 68.07-10.47 67.2-11.64 65.1-13.38L65.1-13.38 60.9-16.92Q58.62-18.9 57.21-20.97 55.8-23.04 55.8-26.16L55.8-26.16Q55.8-28.98 57.09-30.99 58.38-33 60.63-34.11 62.88-35.22 65.64-35.22L65.64-35.22Q69.84-35.22 72.39-32.73 74.94-30.24 75.66-26.22L75.66-26.22 70.32-23.94Q70.02-25.38 69.45-26.61 68.88-27.84 67.98-28.62 67.08-29.4 65.88-29.4L65.88-29.4Q64.62-29.4 63.87-28.62 63.12-27.84 63.12-26.64L63.12-26.64Q63.12-25.62 63.99-24.54 64.86-23.46 66.48-22.08L66.48-22.08 70.74-18.24Q72.12-17.04 73.38-15.66 74.64-14.28 75.48-12.57 76.32-10.86 76.32-8.64L76.32-8.64Q76.32-5.64 74.97-3.6 73.62-1.56 71.31-0.51 69 0.54 66.18 0.54ZM90.78 0.42L90.78 0.42Q87.48 0.42 85.59-0.66 83.7-1.74 82.92-3.78 82.14-5.82 82.14-8.64L82.14-8.64 82.14-29.28 78.66-29.28 78.66-34.68 82.14-34.68 82.14-45.06 90.36-45.06 90.36-34.68 95.64-34.68 95.64-29.28 90.36-29.28 90.36-9.36Q90.36-7.56 91.14-6.81 91.92-6.06 93.48-6.06L93.48-6.06Q94.14-6.06 94.77-6.12 95.4-6.18 96-6.24L96-6.24 96 0Q94.98 0.12 93.63 0.27 92.28 0.42 90.78 0.42ZM109.02 0L100.86 0 100.86-34.68 109.02-34.68 109.02-29.34Q110.82-32.4 112.62-33.75 114.42-35.1 116.58-35.1L116.58-35.1Q116.94-35.1 117.21-35.07 117.48-35.04 117.84-34.98L117.84-34.98 117.84-26.52Q117.12-26.82 116.25-27.03 115.38-27.24 114.48-27.24L114.48-27.24Q112.86-27.24 111.54-26.46 110.22-25.68 109.02-23.88L109.02-23.88 109.02 0ZM128.46 0.54L128.46 0.54Q126.12 0.54 124.44-0.69 122.76-1.92 121.86-3.81 120.96-5.7 120.96-7.74L120.96-7.74Q120.96-10.98 122.16-13.2 123.36-15.42 125.34-16.92 127.32-18.42 129.84-19.53 132.36-20.64 134.94-21.54L134.94-21.54 134.94-24.54Q134.94-26.04 134.73-27.06 134.52-28.08 133.95-28.62 133.38-29.16 132.18-29.16L132.18-29.16Q131.16-29.16 130.53-28.68 129.9-28.2 129.63-27.33 129.36-26.46 129.3-25.32L129.3-25.32 129.18-23.22 121.44-23.52Q121.62-29.52 124.41-32.37 127.2-35.22 132.9-35.22L132.9-35.22Q138.12-35.22 140.49-32.34 142.86-29.46 142.86-24.54L142.86-24.54 142.86-8.52Q142.86-6.6 142.95-5.04 143.04-3.48 143.19-2.22 143.34-0.96 143.46 0L143.46 0 136.14 0Q135.96-1.2 135.69-2.73 135.42-4.26 135.3-4.98L135.3-4.98Q134.7-2.88 133.02-1.17 131.34 0.54 128.46 0.54ZM131.46-5.52L131.46-5.52Q132.24-5.52 132.93-5.91 133.62-6.3 134.16-6.84 134.7-7.38 134.94-7.8L134.94-7.8 134.94-17.46Q133.62-16.68 132.45-15.9 131.28-15.12 130.41-14.19 129.54-13.26 129.09-12.18 128.64-11.1 128.64-9.66L128.64-9.66Q128.64-7.74 129.39-6.63 130.14-5.52 131.46-5.52Z" transform="translate(-3.6600000858306885, 48.599998474121094)"></path>
          </g>
        </g>
      </g>
    </g>
  </g>
  <defs></defs>
</svg>
